<?xml version="1.0" encoding="UTF-8"?>
<svg id="Layer_2" data-name="Layer 2" xmlns="http://www.w3.org/2000/svg" viewBox="0 0 451.88 452.05">
  <defs>
    <style>
      .cls-1 {
        fill: #00462c;
      }
    </style>
  </defs>
  <g id="Layer_2-2" data-name="Layer 2">
    <g>
      <path class="cls-1" d="m57.04,166.55c16.83,0,32.37,7.53,50.38,24.41,4.68,4.38,9.34,9.04,13.85,13.54,7.39,7.38,15.03,15,23.22,21.95,4.71,3.99,10.49,6.02,15.66,7.76-5.87,4.02-11.45,7.8-17.37,10.41-4.46,1.97-8.88,2.93-13.52,2.93-7.61,0-15.52-2.58-24.19-7.9-5.97-3.66-12.02-7.46-17.87-11.14-10.59-6.66-21.53-13.54-32.6-19.94-6.95-4.02-15.19-5.67-21.21-6.87-1.35-.27-2.65-.41-3.86-.41-4.4,0-8.11,1.89-10.17,5.19-1.63,2.6-2.89,7.08.31,13.65,6.92,14.2,19.19,22.45,30.28,28.65,7.85,4.38,16.06,8.03,24.01,11.55.84.37,1.69.75,2.54,1.13-1.18.42-2.34.83-3.51,1.24-6.12,2.12-12.36,4.24-18.4,6.3-9.78,3.34-19.88,6.78-29.82,10.3-7.22-13.3-11.34-24.87-12.94-36.34-.45-3.24-1.05-6.42-1.63-9.49-.75-3.99-1.45-7.75-1.84-11.5-1.34-13.02.96-24.91,6.84-35.34,6.75-11.97,17.96-18.09,36.36-19.83,1.83-.17,3.67-.26,5.47-.26m0-8c-2.03,0-4.11.1-6.22.3-17.58,1.66-33.35,7.48-42.58,23.87-6.95,12.33-9.28,26-7.83,40.09.73,7.14,2.51,14.16,3.5,21.28,2.01,14.36,7.44,27.44,14.37,40.02,1.36,2.47,2.9,3.72,5.12,3.72.89,0,1.88-.2,3.01-.6,16.35-5.8,32.81-11.28,49.2-16.95,6.15-2.13,12.24-4.45,19.89-7.25-3.02-2.22-4.49-3.7-6.25-4.54-11.8-5.57-24.03-10.32-35.39-16.67-10.86-6.07-21.23-13.34-26.99-25.17-2.22-4.56-1.26-7.34,2.67-7.34.68,0,1.44.08,2.29.25,6.42,1.28,13.21,2.73,18.77,5.95,17.03,9.86,33.5,20.69,50.29,30.98,9.07,5.56,18.59,9.08,28.37,9.08,5.51,0,11.11-1.12,16.76-3.62,9.33-4.13,17.62-10.64,26.26-16.27,1.06-.69,2.25-3.05,1.85-3.71-.75-1.24-2.53-1.99-4.02-2.63-6.87-2.96-15.01-4.37-20.45-8.99-12.92-10.96-24.39-23.62-36.78-35.23-15.97-14.96-33.56-26.58-55.85-26.58h0Z"/>
      <path class="cls-1" d="m238.38,282.58h0,0m-2.44,10.56c7.22,9.8,12.58,20.11,12.02,32.56-.46,10.25-6.01,19.2-11.9,28.67l-.77,1.25c-2.8,4.52-5.7,9.1-8.51,13.54-5.65,8.92-11.49,18.14-16.9,27.49-3.5,6.04-5.45,12.54-7.34,18.82l-.43,1.44c-1.1,3.63-1.41,12.75,4.81,16.2,2.45,1.35,5.12,1.64,6.93,1.64,2.15,0,6.23-.4,9.44-3.06,1.14-.95,2.32-1.89,3.56-2.88,5.48-4.38,11.7-9.35,15.76-15.99,6.18-10.11,11.43-20.81,16.51-31.15.92-1.87,1.86-3.78,2.8-5.68.79,2.15,1.58,4.3,2.33,6.44,2.33,6.58,4.66,13.29,6.91,19.79,2.46,7.1,5.01,14.43,7.57,21.64.74,2.09,1.1,3.34,1.27,4.08-.58.38-1.59.96-3.33,1.83-19.21,9.6-37.93,14.27-57.25,14.27-6.62,0-13.38-.57-20.08-1.71-8.94-1.51-16.36-5.93-22.04-13.12-5.11-6.48-8.47-14.96-9.45-23.87-1.27-11.5.13-22,4.26-32.08,3.88-9.46,10.07-18.35,18.94-27.19,10.77-10.72,21.37-21.89,31.63-32.69l1.92-2.02c5.21-5.49,9-11.59,11.33-18.23m-3.08-15.29c-1.41,0-2.23,2-2.5,4.17-1.15,9.28-5.22,17.16-11.56,23.84-11.03,11.61-22.04,23.25-33.39,34.55-18.29,18.21-28.41,39.39-25.51,65.81,2.18,19.81,14.78,40.07,38.1,44.01,7.24,1.23,14.38,1.82,21.41,1.82,21.1,0,41.31-5.36,60.82-15.11,8.75-4.38,9.35-6.34,6.02-15.74-4.89-13.78-9.6-27.63-14.48-41.42-2.49-7.03-5.17-13.99-7.77-20.97-.89.09-1.78.18-2.66.28-1.06,2.19-2.09,4.41-3.2,6.58-7.34,14.41-13.97,29.25-22.38,43.01-4.11,6.73-11.33,11.68-17.6,16.88-.96.8-2.69,1.21-4.33,1.21-1.16,0-2.28-.21-3.06-.64-1.28-.71-1.67-4.76-1.03-6.89,1.92-6.34,3.77-12.91,7.04-18.57,8.01-13.85,16.86-27.21,25.29-40.83,6.49-10.48,13.28-20.94,13.86-33.77.85-18.83-9.38-32.99-20.54-46.51-1-1.21-1.85-1.71-2.55-1.71h0Z"/>
      <path class="cls-1" d="m429.14,172.36h0,0m-.94.23s.04.07.06.1c10.15,18.71,15.22,36.09,15.51,53.15v.62c.16,8.88.31,18.06-1.03,26.49-2.56,16.1-13.24,26.47-31.73,30.81-4.94,1.16-9.83,1.75-14.53,1.75-15.65,0-30.33-6.4-44.88-19.56-7.98-7.22-15.83-14.97-23.43-22.47-4.51-4.46-9.18-9.07-13.86-13.55-6.56-6.29-13.36-10.69-20.59-13.31,9.91-7.16,19.87-11.4,33.5-11.43.2,0,.4,0,.6-.02.31-.02.64-.04.97-.04,7.14,0,16.63,5.76,24.26,10.39,3.07,1.86,6.13,3.73,9.2,5.6,13.56,8.25,27.57,16.79,41.59,24.88,5.1,2.95,10.97,4.07,16.06,4.89,1.03.17,2.04.25,3.02.25,5.13,0,9.3-2.27,11.44-6.23,2.19-4.05,1.73-8.98-1.25-13.53-3.73-5.7-8.88-12.92-15.56-18.24-11.45-9.12-24.56-16.64-39.84-22.83,7.23-2.55,14.47-5.08,21.55-7.56,9.41-3.29,19.15-6.7,28.71-10.09.09-.03.18-.06.26-.09m.91-8.23c-1.14,0-2.41.28-3.84.78-20.4,7.23-40.86,14.28-61.25,21.53-1.62.58-2.89,2.14-4.32,3.24,1.47,1.33,2.72,3.31,4.45,3.9,17.49,6,33.94,14.09,48.39,25.6,5.5,4.38,9.95,10.41,13.86,16.37,2.75,4.19.94,7.37-3.49,7.37-.54,0-1.13-.05-1.75-.15-4.56-.73-9.42-1.66-13.33-3.92-17.04-9.84-33.81-20.17-50.63-30.38-9.68-5.88-19.4-11.56-28.41-11.56-.53,0-1.06.02-1.58.06-20.57.05-33.95,8.87-46.49,19.53-.91.77-1.83,2.42-1.59,3.38.21.87,1.94,1.8,3.09,1.95,10.55,1.31,19.1,6.51,26.57,13.66,12.53,12.01,24.59,24.54,37.46,36.17,14.82,13.4,31.28,21.62,50.25,21.62,5.25,0,10.7-.63,16.36-1.96,20.03-4.71,34.48-16.51,37.8-37.34,1.48-9.33,1.29-19,1.13-28.5-.34-20.39-6.82-39.06-16.47-56.84-1.73-3.18-3.66-4.52-6.18-4.52h0Z"/>
      <path class="cls-1" d="m235.8,8c1.96,0,3.98.04,5.98.13,13.74.59,24.37,4.6,31.6,11.92,7.09,7.17,11.19,17.74,12.21,31.42,1.32,17.73-4.75,33.76-18.55,49-6.87,7.58-14.22,15.07-21.33,22.31-5.64,5.75-11.48,11.69-17.11,17.7-5.02,5.37-8.67,11.11-10.92,17.15-4.09-6.31-7.89-12.34-10.39-18.7-4.31-10.95-2-22.24,7.72-37.76,1.83-2.92,3.67-5.84,5.51-8.76,7.74-12.3,15.75-25.03,23.22-37.86,3.64-6.26,5.6-13.02,7.49-19.56l.22-.77c1.35-4.67-.22-10.91-3.67-14.51-1.26-1.31-3.54-2.88-7.26-2.88-2.8,0-6.2.91-8.66,2.31-11.86,6.74-21.36,17.22-29.05,32.03-3.84,7.4-7.19,15.06-10.42,22.47-.34.79-.69,1.58-1.04,2.37-1.84-5.37-3.67-10.75-5.51-16.13-3.94-11.57-8.01-23.5-12.13-35.27,1.93-.89,3.85-1.78,5.72-2.66,6.93-3.26,13.49-6.33,20.27-8.51,11.25-3.61,23.4-5.44,36.11-5.44m0-8c-13.16,0-26.06,1.81-38.55,5.82-10.11,3.24-19.64,8.31-29.39,12.65-2.93,1.31-3.61,3.35-2.45,6.66,6.72,19.15,13.18,38.4,19.78,57.59,1.29,3.75,2.82,7.41,4.23,11.11.72-.02,1.44-.04,2.15-.05,1.09-1.98,2.32-3.89,3.26-5.94,5.02-11,9.5-22.28,15.07-32.99,6.09-11.72,14.14-22.07,25.91-28.77,1.21-.69,3.26-1.26,4.71-1.26.67,0,1.21.12,1.48.41,1.44,1.51,2.35,4.75,1.77,6.76-1.83,6.33-3.66,12.9-6.94,18.53-9.13,15.7-18.94,31-28.59,46.4-8.72,13.92-14.73,28.83-8.39,44.93,4.14,10.53,11.25,19.89,17.22,29.66.59.96,2.3,1.84,3.47,1.84.14,0,.27-.01.39-.04.96-.2,2.07-2.21,2.17-3.49.74-9.45,5.15-17.25,11.35-23.89,12.66-13.54,26.08-26.37,38.53-40.11,14-15.45,22.19-33.55,20.6-54.96-2.3-30.94-19.22-49.35-51.45-50.74-2.11-.09-4.22-.14-6.32-.14h0Z"/>
      <path class="cls-1" d="m180.86,271.24c-.86,2.01-1.7,3.97-2.56,5.95-11.62,26.87-24.32,48.71-38.83,66.76-6.41,7.98-13.47,15.8-20.3,23.37-3.53,3.92-7.19,7.96-10.74,12.02-5.5,6.28-11.96,13.7-18.44,21.43-5.04-5.03-10.14-10.14-15.07-15.09-7.93-7.96-16.12-16.17-24.27-24.22,7.22-6.1,14.39-12.39,21.34-18.49,16.78-14.72,34.13-29.95,52.47-42.68,14.3-9.92,30.28-17.18,47.2-24.85,3.03-1.38,6.11-2.77,9.2-4.2m-132.33,92.05h0s0,0,0,0m141.83-105.05c-.48,0-.92.07-1.29.26-23.25,11.42-48.09,20.6-69.16,35.22-26.95,18.7-50.83,41.84-76.07,63.02-3.74,3.14-3.45,5.82-.05,9.18,14.05,13.85,27.9,27.91,41.87,41.83,2,1.99,3.35,2.98,4.64,2.98,1.48,0,2.88-1.31,5.08-3.94,6.25-7.48,12.65-14.85,19.07-22.19,10.41-11.89,21.36-23.34,31.25-35.65,16.72-20.8,29.36-44.13,39.94-68.6,2.86-6.63,5.67-13.28,9.18-21.49-1.61-.13-3.19-.63-4.47-.63h0Z"/>
      <path class="cls-1" d="m92.12,47.29h0,0m-2.07,1.99c7.55,9.3,15.71,18.15,23.61,26.73,14.24,15.46,27.69,30.06,38.19,47.27,7.59,12.45,14.28,25.96,20.75,39.02,2.32,4.69,4.72,9.54,7.14,14.3.52,1.01,1.01,2.04,1.5,3.1-23.58-10.37-47.4-21.56-67.87-37.55-8.2-6.41-16.23-13.51-24-20.39-3.51-3.1-7.14-6.31-10.76-9.44-2.83-2.45-5.71-4.96-8.49-7.39-6.23-5.45-12.66-11.07-19.21-16.46,12.59-12.42,25.42-25.27,39.13-39.2m.4-9.62c-1.57,0-3.16,1.02-4.88,2.77-13.82,14.05-27.74,28.01-41.78,41.85-3.81,3.75-3.23,6.06.77,9.33,9.82,8,19.24,16.49,28.84,24.77,11.66,10.06,22.94,20.61,35.06,30.07,23.74,18.55,51.15,30.54,78.51,42.48,2.08.91,4.52.98,8.56,1.79-3.38-7.77-5.69-13.93-8.65-19.75-9.19-18.06-17.66-36.59-28.19-53.85-17.48-28.66-43.18-50.72-63.96-76.79-1.47-1.84-2.87-2.66-4.27-2.66h0Z"/>
      <path class="cls-1" d="m364.82,47.16h0,0m-2.06,2.33c7.41,7.6,15.04,15.12,22.43,22.4,5.57,5.49,11.32,11.16,16.91,16.79-7.08,6.15-14.22,12.43-21.13,18.5-10.87,9.56-22.12,19.44-33.3,28.98-17.37,14.81-38.39,27.25-66.15,39.17-2.75,1.18-5.45,2.44-8.06,3.66-.55.26-1.09.51-1.63.76,1.33-3.14,2.71-6.18,4.26-9.1,2.01-3.81,4.02-7.68,5.97-11.43,7.24-13.97,14.73-28.41,23.47-41.41,7-10.41,15.3-19.82,24.09-29.78,3.55-4.02,7.21-8.18,10.75-12.37,3.3-3.91,6.72-7.87,10.03-11.7,4.08-4.71,8.28-9.58,12.37-14.48m-.26-9.68c-1.75,0-3.26,1.41-5.06,3.58-7.6,9.15-15.51,18.03-23.19,27.12-11.95,14.16-25.08,27.55-35.37,42.85-11.37,16.91-20.31,35.48-29.87,53.56-4.05,7.66-6.97,15.92-10.41,23.91.49.56.99,1.12,1.48,1.68,2.7-.76,5.51-1.27,8.08-2.35,5.57-2.34,10.96-5.1,16.52-7.48,24.49-10.51,47.8-23.06,68.18-40.43,18.41-15.69,36.42-31.84,54.69-47.7,5.42-4.71,5.82-5.86.58-11.15-13.59-13.71-27.55-27.04-40.99-40.89-1.84-1.9-3.31-2.71-4.64-2.71h0Z"/>
      <path class="cls-1" d="m272,270.31c24.42,10.93,49.67,23.23,71.55,40.4,4.79,3.76,9.32,7.77,14.11,12.02,2.1,1.86,4.27,3.78,6.44,5.66,3.74,3.23,7.47,6.47,11.2,9.71,8.76,7.6,17.79,15.44,26.79,23.12-.79.8-1.58,1.61-2.37,2.41-3.36,3.42-6.83,6.96-10.27,10.38-3.32,3.31-6.72,6.66-10.01,9.9-5.53,5.45-11.24,11.08-16.81,16.74-6.28-7.46-12.7-14.95-18.92-22.21-13.5-15.75-27.47-32.04-40.45-48.56-7.19-9.15-12.83-20.31-18.27-31.1-.85-1.68-1.69-3.35-2.54-5.01-3.84-7.53-7.2-15.63-10.46-23.48m-13.39-13.27c.9,3.27,1.14,4.75,1.71,6.09,4.92,11.47,9.35,23.2,15.01,34.29,6.55,12.84,12.83,26.2,21.65,37.43,19.52,24.83,40.6,48.41,60.92,72.62,1.63,1.94,3.04,2.88,4.49,2.88s2.82-.88,4.49-2.58c9.28-9.48,18.82-18.7,28.22-28.07,5.11-5.09,10.14-10.27,15.21-15.41,2.32-2.35,2.65-4.31-.25-6.78-13.66-11.62-27.16-23.43-40.72-35.16-6.93-6-13.65-12.27-20.85-17.93-23.99-18.83-51.32-31.74-78.99-43.98-3.01-1.33-6.32-2-10.89-3.4h0Z"/>
      <path class="cls-1" d="m226.27,198.19h0c.19,0,.39,0,.58,0,15.08.37,26.74,12.19,26.55,26.9-.21,16.12-10.29,26.04-26.97,26.54-.26,0-.51.01-.77.01-6.75,0-13.18-2.71-18.09-7.64-5.07-5.08-7.96-12.08-7.94-19.19,0-.14,0-.28,0-.42-.28-5.56,2.65-12.27,7.65-17.51,3.09-3.25,9.67-8.7,19.01-8.7m0-8c-20.08,0-35.41,19.23-34.64,34.61-.06,18.87,15.17,34.86,34.03,34.86.33,0,.67,0,1.01-.02,22.73-.68,34.49-15.74,34.73-34.43.25-19.19-15.07-34.53-34.35-35.01-.26,0-.52,0-.78,0h0Z"/>
    </g>
  </g>
</svg>